# xmcd
#
# Track frame offsets:
#	150
#	13647
#	31415
#	51437
#	62968
#	87451
#	99607
#	120503
#	140754
#	162050
#	182012
#	202714
#
# Disc length: 2964 seconds
#
# Revision: 0
# Processed by: cddbd v1.5PL3 Copyright (c) Steve Scherf et al.
# Submitted via: dBpowerAMP V4.0
#
DISCID=a10b920c
DTITLE=Janine Wilson - The Blue Album
DYEAR=1900
DGENRE=Blues
TTITLE0=It's Better To Give Than To Receive
TTITLE1=That Last Night
TTITLE2=I Was Good To You Baby
TTITLE3=When My Love Comes Down
TTITLE4=What Passes For Love
TTITLE5=Almost Blue
TTITLE6=Make No Mistake
TTITLE7=Passionate Kiss
TTITLE8=And I Cried
TTITLE9=Breakin' Up Somebody's Home
TTITLE10=Queen Bee
TTITLE11=I Smell Trouble
EXTD=
EXTT0=
EXTT1=
EXTT2=
EXTT3=
EXTT4=
EXTT5=
EXTT6=
EXTT7=
EXTT8=
EXTT9=
EXTT10=
EXTT11=
PLAYORDER=
